<mxfile host="Electron" modified="2023-10-04T04:09:28.397Z" agent="Mozilla/5.0 (Windows NT 10.0; Win64; x64) AppleWebKit/537.36 (KHTML, like Gecko) draw.io/22.0.2 Chrome/114.0.5735.289 Electron/25.8.4 Safari/537.36" etag="46359QNVKJFpeeHle8NZ" version="22.0.2" type="device" pages="2">
  <diagram name="Page-1" id="e4s5gF9OVUa1FKFNHmXJ">
    <mxGraphModel dx="1480" dy="934" grid="1" gridSize="10" guides="1" tooltips="1" connect="1" arrows="1" fold="1" page="1" pageScale="1" pageWidth="850" pageHeight="1100" math="0" shadow="0">
      <root>
        <mxCell id="0" />
        <mxCell id="1" parent="0" />
        <mxCell id="4rqAatZ1dElGgc22CTJt-4" value="" style="shape=image;verticalLabelPosition=bottom;labelBackgroundColor=default;verticalAlign=top;aspect=fixed;imageAspect=0;image=https://ae01.alicdn.com/kf/S254b56f526a14728aecffdda9171593cv/For-IWR1843BOOST-single-chip-76GHz-to-81GHz-industrial-radar-sensor-evaluation-module.jpg;rotation=-90;" vertex="1" parent="1">
          <mxGeometry x="-4.779999999999999" y="120" width="369.56" height="300" as="geometry" />
        </mxCell>
        <mxCell id="4rqAatZ1dElGgc22CTJt-5" value="IWR1843 BOOST" style="text;html=1;strokeColor=none;fillColor=none;align=center;verticalAlign=middle;whiteSpace=wrap;rounded=0;fontSize=32;" vertex="1" parent="1">
          <mxGeometry x="40" y="40" width="280" height="40" as="geometry" />
        </mxCell>
        <mxCell id="4rqAatZ1dElGgc22CTJt-10" value="" style="shape=image;verticalLabelPosition=bottom;labelBackgroundColor=default;verticalAlign=top;aspect=fixed;imageAspect=0;image=https://www.latticesemi.com/-/media/LatticeSemi/Images/ProductImages/DevelopmentKitsAndBoards/3rdPartyBoards/DCA1000EVM/DCA1000EVM-front.png;" vertex="1" parent="1">
          <mxGeometry x="400" y="86.75" width="437.1" height="366.5" as="geometry" />
        </mxCell>
        <mxCell id="4rqAatZ1dElGgc22CTJt-11" value="DCA1000 EVM" style="text;html=1;strokeColor=none;fillColor=none;align=center;verticalAlign=middle;whiteSpace=wrap;rounded=0;fontSize=32;" vertex="1" parent="1">
          <mxGeometry x="478.55" y="40" width="280" height="40" as="geometry" />
        </mxCell>
        <mxCell id="4rqAatZ1dElGgc22CTJt-12" value="" style="shape=image;verticalLabelPosition=bottom;labelBackgroundColor=default;verticalAlign=top;aspect=fixed;imageAspect=0;image=https://e2e.ti.com/cfs-file/__key/communityserver-discussions-components-files/1023/postProcRadar01.png;" vertex="1" parent="1">
          <mxGeometry x="900" y="90" width="510.54" height="360" as="geometry" />
        </mxCell>
        <mxCell id="4rqAatZ1dElGgc22CTJt-13" value="mmWave Studio" style="text;html=1;strokeColor=none;fillColor=none;align=center;verticalAlign=middle;whiteSpace=wrap;rounded=0;fontSize=32;" vertex="1" parent="1">
          <mxGeometry x="1015.27" y="40" width="280" height="40" as="geometry" />
        </mxCell>
        <mxCell id="4rqAatZ1dElGgc22CTJt-14" value="" style="shape=flexArrow;endArrow=classic;html=1;rounded=0;exitX=0.284;exitY=0.233;exitDx=0;exitDy=0;exitPerimeter=0;entryX=0.206;entryY=0.718;entryDx=0;entryDy=0;entryPerimeter=0;fillColor=#dae8fc;strokeWidth=5;strokeColor=default;" edge="1" parent="1" source="4rqAatZ1dElGgc22CTJt-4" target="4rqAatZ1dElGgc22CTJt-10">
          <mxGeometry width="50" height="50" relative="1" as="geometry">
            <mxPoint x="410" y="330" as="sourcePoint" />
            <mxPoint x="460" y="280" as="targetPoint" />
          </mxGeometry>
        </mxCell>
        <mxCell id="4rqAatZ1dElGgc22CTJt-15" value="ADC Signals" style="text;html=1;strokeColor=#9673a6;fillColor=#e1d5e7;align=center;verticalAlign=middle;whiteSpace=wrap;rounded=0;fontSize=28;" vertex="1" parent="1">
          <mxGeometry x="210" y="310" width="170" height="30" as="geometry" />
        </mxCell>
        <mxCell id="4rqAatZ1dElGgc22CTJt-17" value="" style="shape=flexArrow;endArrow=classic;html=1;rounded=0;exitX=0.284;exitY=0.233;exitDx=0;exitDy=0;exitPerimeter=0;fillColor=#dae8fc;strokeWidth=5;strokeColor=#6c8ebf;" edge="1" parent="1">
          <mxGeometry width="50" height="50" relative="1" as="geometry">
            <mxPoint x="790" y="240" as="sourcePoint" />
            <mxPoint x="1040" y="240" as="targetPoint" />
          </mxGeometry>
        </mxCell>
        <mxCell id="4rqAatZ1dElGgc22CTJt-18" value="ADC Data" style="text;html=1;strokeColor=#9673a6;fillColor=#e1d5e7;align=center;verticalAlign=middle;whiteSpace=wrap;rounded=0;fontSize=28;" vertex="1" parent="1">
          <mxGeometry x="830" y="200" width="170" height="30" as="geometry" />
        </mxCell>
      </root>
    </mxGraphModel>
  </diagram>
  <diagram id="d7ehOhgYwzdPLFqaKgaw" name="Page-2">
    <mxGraphModel dx="863" dy="1645" grid="1" gridSize="10" guides="1" tooltips="1" connect="1" arrows="1" fold="1" page="1" pageScale="1" pageWidth="850" pageHeight="1100" math="0" shadow="0">
      <root>
        <mxCell id="0" />
        <mxCell id="1" parent="0" />
        <mxCell id="6yVZZ5K1geydypRiv_Tn-15" value="&amp;nbsp;ADC Binary&amp;nbsp;" style="edgeStyle=orthogonalEdgeStyle;rounded=0;orthogonalLoop=1;jettySize=auto;html=1;labelBorderColor=default;" edge="1" parent="1" source="6yVZZ5K1geydypRiv_Tn-11" target="6yVZZ5K1geydypRiv_Tn-12">
          <mxGeometry x="-0.1111" relative="1" as="geometry">
            <mxPoint as="offset" />
          </mxGeometry>
        </mxCell>
        <mxCell id="6yVZZ5K1geydypRiv_Tn-11" value="mmWave Radar" style="rounded=0;whiteSpace=wrap;html=1;" vertex="1" parent="1">
          <mxGeometry x="40" y="80" width="100" height="80" as="geometry" />
        </mxCell>
        <mxCell id="6yVZZ5K1geydypRiv_Tn-16" value="&amp;nbsp;Data CSV&amp;nbsp;" style="edgeStyle=orthogonalEdgeStyle;rounded=0;orthogonalLoop=1;jettySize=auto;html=1;labelBorderColor=default;" edge="1" parent="1" source="6yVZZ5K1geydypRiv_Tn-12" target="6yVZZ5K1geydypRiv_Tn-13">
          <mxGeometry x="-0.15" relative="1" as="geometry">
            <mxPoint as="offset" />
          </mxGeometry>
        </mxCell>
        <mxCell id="6yVZZ5K1geydypRiv_Tn-12" value="Post Processing Script" style="rounded=0;whiteSpace=wrap;html=1;" vertex="1" parent="1">
          <mxGeometry x="220" y="80" width="100" height="80" as="geometry" />
        </mxCell>
        <mxCell id="6yVZZ5K1geydypRiv_Tn-17" value="&amp;nbsp;Frames&amp;nbsp;" style="edgeStyle=orthogonalEdgeStyle;rounded=0;orthogonalLoop=1;jettySize=auto;html=1;labelBorderColor=default;" edge="1" parent="1" source="6yVZZ5K1geydypRiv_Tn-13" target="6yVZZ5K1geydypRiv_Tn-14">
          <mxGeometry relative="1" as="geometry" />
        </mxCell>
        <mxCell id="6yVZZ5K1geydypRiv_Tn-13" value="Pre Processing Algorithim" style="rounded=0;whiteSpace=wrap;html=1;" vertex="1" parent="1">
          <mxGeometry x="400" y="80" width="100" height="80" as="geometry" />
        </mxCell>
        <mxCell id="6yVZZ5K1geydypRiv_Tn-14" value="CNN Model" style="rounded=0;whiteSpace=wrap;html=1;" vertex="1" parent="1">
          <mxGeometry x="580" y="80" width="100" height="80" as="geometry" />
        </mxCell>
        <mxCell id="6yVZZ5K1geydypRiv_Tn-34" value="" style="group" vertex="1" connectable="0" parent="1">
          <mxGeometry x="40" y="-20" width="520" height="80" as="geometry" />
        </mxCell>
        <mxCell id="6yVZZ5K1geydypRiv_Tn-10" value="" style="rounded=0;whiteSpace=wrap;html=1;" vertex="1" parent="6yVZZ5K1geydypRiv_Tn-34">
          <mxGeometry width="520" height="80" as="geometry" />
        </mxCell>
        <mxCell id="6yVZZ5K1geydypRiv_Tn-1" value="IWR1843&lt;br&gt;BOOST" style="rounded=0;whiteSpace=wrap;html=1;" vertex="1" parent="6yVZZ5K1geydypRiv_Tn-34">
          <mxGeometry x="10" y="10" width="80" height="60" as="geometry" />
        </mxCell>
        <mxCell id="6yVZZ5K1geydypRiv_Tn-2" value="DCA1000&lt;br&gt;EVM" style="rounded=0;whiteSpace=wrap;html=1;" vertex="1" parent="6yVZZ5K1geydypRiv_Tn-34">
          <mxGeometry x="180" y="10" width="80" height="60" as="geometry" />
        </mxCell>
        <mxCell id="6yVZZ5K1geydypRiv_Tn-3" style="edgeStyle=orthogonalEdgeStyle;rounded=0;orthogonalLoop=1;jettySize=auto;html=1;" edge="1" parent="6yVZZ5K1geydypRiv_Tn-34" source="6yVZZ5K1geydypRiv_Tn-1" target="6yVZZ5K1geydypRiv_Tn-2">
          <mxGeometry relative="1" as="geometry" />
        </mxCell>
        <mxCell id="6yVZZ5K1geydypRiv_Tn-4" value="&amp;nbsp;ADC Signals&amp;nbsp;" style="edgeLabel;html=1;align=center;verticalAlign=middle;resizable=0;points=[];labelBorderColor=default;spacingLeft=0;" vertex="1" connectable="0" parent="6yVZZ5K1geydypRiv_Tn-3">
          <mxGeometry x="0.0138" y="-2" relative="1" as="geometry">
            <mxPoint x="-6" y="-2" as="offset" />
          </mxGeometry>
        </mxCell>
        <mxCell id="6yVZZ5K1geydypRiv_Tn-5" value="mmWave&lt;br&gt;Studio" style="rounded=0;whiteSpace=wrap;html=1;" vertex="1" parent="6yVZZ5K1geydypRiv_Tn-34">
          <mxGeometry x="350" y="10" width="80" height="60" as="geometry" />
        </mxCell>
        <mxCell id="6yVZZ5K1geydypRiv_Tn-6" value="&amp;nbsp;ADC Data&amp;nbsp;" style="edgeStyle=orthogonalEdgeStyle;rounded=0;orthogonalLoop=1;jettySize=auto;html=1;labelBorderColor=default;" edge="1" parent="6yVZZ5K1geydypRiv_Tn-34" source="6yVZZ5K1geydypRiv_Tn-2" target="6yVZZ5K1geydypRiv_Tn-5">
          <mxGeometry relative="1" as="geometry" />
        </mxCell>
        <mxCell id="6yVZZ5K1geydypRiv_Tn-9" value="&amp;nbsp;ADC.bin&amp;nbsp;" style="endArrow=classic;html=1;rounded=0;entryX=0;entryY=0.5;entryDx=0;entryDy=0;labelBorderColor=default;" edge="1" parent="6yVZZ5K1geydypRiv_Tn-34">
          <mxGeometry width="50" height="50" relative="1" as="geometry">
            <mxPoint x="430" y="39.66" as="sourcePoint" />
            <mxPoint x="520" y="39.66" as="targetPoint" />
          </mxGeometry>
        </mxCell>
        <mxCell id="6yVZZ5K1geydypRiv_Tn-35" value="" style="group" vertex="1" connectable="0" parent="1">
          <mxGeometry x="40" y="180" width="540" height="120" as="geometry" />
        </mxCell>
        <mxCell id="6yVZZ5K1geydypRiv_Tn-33" value="" style="rounded=0;whiteSpace=wrap;html=1;" vertex="1" parent="6yVZZ5K1geydypRiv_Tn-35">
          <mxGeometry width="540" height="120" as="geometry" />
        </mxCell>
        <mxCell id="6yVZZ5K1geydypRiv_Tn-20" value="ADC&lt;br&gt;Frames" style="rounded=0;whiteSpace=wrap;html=1;" vertex="1" parent="6yVZZ5K1geydypRiv_Tn-35">
          <mxGeometry x="20" y="10" width="60" height="40" as="geometry" />
        </mxCell>
        <mxCell id="6yVZZ5K1geydypRiv_Tn-21" value="Radar&lt;br&gt;Physical&lt;br&gt;Description" style="rounded=0;whiteSpace=wrap;html=1;" vertex="1" parent="6yVZZ5K1geydypRiv_Tn-35">
          <mxGeometry x="10" y="60" width="70" height="50" as="geometry" />
        </mxCell>
        <mxCell id="6yVZZ5K1geydypRiv_Tn-22" value="Radar&lt;br&gt;Data&lt;br&gt;Cube" style="rounded=0;whiteSpace=wrap;html=1;" vertex="1" parent="6yVZZ5K1geydypRiv_Tn-35">
          <mxGeometry x="120" y="30" width="80" height="60" as="geometry" />
        </mxCell>
        <mxCell id="6yVZZ5K1geydypRiv_Tn-26" style="edgeStyle=orthogonalEdgeStyle;rounded=0;orthogonalLoop=1;jettySize=auto;html=1;" edge="1" parent="6yVZZ5K1geydypRiv_Tn-35" source="6yVZZ5K1geydypRiv_Tn-20" target="6yVZZ5K1geydypRiv_Tn-22">
          <mxGeometry relative="1" as="geometry" />
        </mxCell>
        <mxCell id="6yVZZ5K1geydypRiv_Tn-32" style="edgeStyle=orthogonalEdgeStyle;rounded=0;orthogonalLoop=1;jettySize=auto;html=1;" edge="1" parent="6yVZZ5K1geydypRiv_Tn-35" source="6yVZZ5K1geydypRiv_Tn-21" target="6yVZZ5K1geydypRiv_Tn-22">
          <mxGeometry relative="1" as="geometry" />
        </mxCell>
        <mxCell id="6yVZZ5K1geydypRiv_Tn-23" value="Range&lt;br&gt;Angle&lt;br&gt;Transform" style="rounded=0;whiteSpace=wrap;html=1;" vertex="1" parent="6yVZZ5K1geydypRiv_Tn-35">
          <mxGeometry x="240" y="30" width="80" height="60" as="geometry" />
        </mxCell>
        <mxCell id="6yVZZ5K1geydypRiv_Tn-28" style="edgeStyle=orthogonalEdgeStyle;rounded=0;orthogonalLoop=1;jettySize=auto;html=1;" edge="1" parent="6yVZZ5K1geydypRiv_Tn-35" source="6yVZZ5K1geydypRiv_Tn-22" target="6yVZZ5K1geydypRiv_Tn-23">
          <mxGeometry relative="1" as="geometry" />
        </mxCell>
        <mxCell id="6yVZZ5K1geydypRiv_Tn-31" value="&amp;nbsp;Clipped Frame&amp;nbsp;" style="edgeStyle=orthogonalEdgeStyle;rounded=0;orthogonalLoop=1;jettySize=auto;html=1;labelBorderColor=default;" edge="1" parent="6yVZZ5K1geydypRiv_Tn-35" source="6yVZZ5K1geydypRiv_Tn-24">
          <mxGeometry x="-0.1043" y="-1" relative="1" as="geometry">
            <mxPoint x="540" y="60" as="targetPoint" />
            <mxPoint as="offset" />
          </mxGeometry>
        </mxCell>
        <mxCell id="6yVZZ5K1geydypRiv_Tn-24" value="Frame&lt;br&gt;Clipping" style="rounded=0;whiteSpace=wrap;html=1;" vertex="1" parent="6yVZZ5K1geydypRiv_Tn-35">
          <mxGeometry x="360" y="30" width="80" height="60" as="geometry" />
        </mxCell>
        <mxCell id="6yVZZ5K1geydypRiv_Tn-29" style="edgeStyle=orthogonalEdgeStyle;rounded=0;orthogonalLoop=1;jettySize=auto;html=1;" edge="1" parent="6yVZZ5K1geydypRiv_Tn-35" source="6yVZZ5K1geydypRiv_Tn-23" target="6yVZZ5K1geydypRiv_Tn-24">
          <mxGeometry relative="1" as="geometry" />
        </mxCell>
      </root>
    </mxGraphModel>
  </diagram>
</mxfile>
